name p6_grf_mean_speed_1.8
datacolumns 13
datarows 28
range 0.0000000000 0.2700000000
endheader
time	grf_x_l_mean	grf_x_l_var	grf_y_l_mean	grf_y_l_var	grf_z_l_mean	grf_z_l_var	grf_x_r_mean	grf_x_r_var	grf_y_r_mean	grf_y_r_var	grf_z_r_mean	grf_z_r_var
0.0000000000	221.7105429815	1.0000000000	900.7110635819	1.0000000000	0.0000000000	0.0000000000	8.7511690389	1.0000000000	11.9489103899	1.0000000000	0.0000000000	0.0000000000
0.0100000000	235.4989629770	1.0000000000	868.8711184499	1.0000000000	0.0000000000	0.0000000000	12.8093194867	1.0000000000	67.0784668474	1.0000000000	0.0000000000	0.0000000000
0.0200000000	243.9008935539	1.0000000000	817.5793634565	1.0000000000	0.0000000000	0.0000000000	15.1463961500	1.0000000000	160.0165945443	1.0000000000	0.0000000000	0.0000000000
0.0300000000	244.5103844384	1.0000000000	746.8979337219	1.0000000000	0.0000000000	0.0000000000	10.9814575628	1.0000000000	291.0551238031	1.0000000000	0.0000000000	0.0000000000
0.0400000000	235.3165470307	1.0000000000	658.6832491480	1.0000000000	0.0000000000	0.0000000000	-8.2699309052	1.0000000000	446.9795019853	1.0000000000	0.0000000000	0.0000000000
0.0500000000	214.3460833780	1.0000000000	556.9516536440	1.0000000000	0.0000000000	0.0000000000	-47.2049754933	1.0000000000	602.9023809023	1.0000000000	0.0000000000	0.0000000000
0.0600000000	182.4364564309	1.0000000000	447.7327471174	1.0000000000	0.0000000000	0.0000000000	-95.9820658699	1.0000000000	736.9220803419	1.0000000000	0.0000000000	0.0000000000
0.0700000000	145.2318645535	1.0000000000	339.6866439506	1.0000000000	0.0000000000	0.0000000000	-139.1640739182	1.0000000000	840.4238011144	1.0000000000	0.0000000000	0.0000000000
0.0800000000	108.0642569177	1.0000000000	241.9595521892	1.0000000000	0.0000000000	0.0000000000	-173.2408904709	1.0000000000	913.6171905559	1.0000000000	0.0000000000	0.0000000000
0.0900000000	72.7798504862	1.0000000000	160.3715021133	1.0000000000	0.0000000000	0.0000000000	-200.4627390958	1.0000000000	963.2426281613	1.0000000000	0.0000000000	0.0000000000
0.1000000000	43.4855831667	1.0000000000	97.4968588992	1.0000000000	0.0000000000	0.0000000000	-218.8590800922	1.0000000000	1000.6535531714	1.0000000000	0.0000000000	0.0000000000
0.1100000000	23.2704249632	1.0000000000	53.5609027437	1.0000000000	0.0000000000	0.0000000000	-226.8485486212	1.0000000000	1034.2264375858	1.0000000000	0.0000000000	0.0000000000
0.1200000000	9.6792636626	1.0000000000	25.8596893041	1.0000000000	0.0000000000	0.0000000000	-226.9907562225	1.0000000000	1063.6720078431	1.0000000000	0.0000000000	0.0000000000
0.1300000000	1.4430670211	1.0000000000	9.0081218740	1.0000000000	0.0000000000	0.0000000000	-221.6730122898	1.0000000000	1083.4009380485	1.0000000000	0.0000000000	0.0000000000
0.1400000000	0.0000000000	1.0000000000	0.0000000000	1.0000000000	0.0000000000	0.0000000000	-209.2642059510	1.0000000000	1090.0470605403	1.0000000000	0.0000000000	0.0000000000
0.1500000000	0.0000000000	1.0000000000	0.0000000000	1.0000000000	0.0000000000	0.0000000000	-191.4283803449	1.0000000000	1083.4093643305	1.0000000000	0.0000000000	0.0000000000
0.1600000000	0.0000000000	1.0000000000	0.0000000000	1.0000000000	0.0000000000	0.0000000000	-172.5756157072	1.0000000000	1062.5870369985	1.0000000000	0.0000000000	0.0000000000
0.1700000000	0.0000000000	1.0000000000	0.0000000000	1.0000000000	0.0000000000	0.0000000000	-152.7800406859	1.0000000000	1027.1587165883	1.0000000000	0.0000000000	0.0000000000
0.1800000000	0.0000000000	1.0000000000	0.0000000000	1.0000000000	0.0000000000	0.0000000000	-131.3947849309	1.0000000000	979.7823968763	1.0000000000	0.0000000000	0.0000000000
0.1900000000	0.0000000000	1.0000000000	0.0000000000	1.0000000000	0.0000000000	0.0000000000	-111.4371916084	1.0000000000	924.8596133612	1.0000000000	0.0000000000	0.0000000000
0.2000000000	-0.9752432070	1.0000000000	0.7130898906	1.0000000000	0.0000000000	0.0000000000	-94.4726098368	1.0000000000	865.1113706210	1.0000000000	0.0000000000	0.0000000000
0.2100000000	-0.2048416793	1.0000000000	0.6833647759	1.0000000000	0.0000000000	0.0000000000	-79.0760175669	1.0000000000	802.1153846003	1.0000000000	0.0000000000	0.0000000000
0.2200000000	-0.3089350379	1.0000000000	0.3679249811	1.0000000000	0.0000000000	0.0000000000	-65.8366347399	1.0000000000	739.7595687434	1.0000000000	0.0000000000	0.0000000000
0.2300000000	-0.9404604778	1.0000000000	0.3904741557	1.0000000000	0.0000000000	0.0000000000	-55.9349059793	1.0000000000	682.9057331623	1.0000000000	0.0000000000	0.0000000000
0.2400000000	-0.4365256985	1.0000000000	0.4039816059	1.0000000000	0.0000000000	0.0000000000	-48.0836684766	1.0000000000	634.0832290132	1.0000000000	0.0000000000	0.0000000000
0.2500000000	0.0072383934	1.0000000000	0.1662877487	1.0000000000	0.0000000000	0.0000000000	-40.8445522178	1.0000000000	593.5580732966	1.0000000000	0.0000000000	0.0000000000
0.2600000000	0.0000000000	1.0000000000	0.0000000000	1.0000000000	0.0000000000	0.0000000000	-35.0377429587	1.0000000000	561.3166187020	1.0000000000	0.0000000000	0.0000000000
0.2700000000	0.0000000000	1.0000000000	0.0000000000	1.0000000000	0.0000000000	0.0000000000	-30.6505615603	1.0000000000	537.8505368811	1.0000000000	0.0000000000	0.0000000000
